<svg xmlns="http://www.w3.org/2000/svg" viewBox="0 0 991 280"><defs><linearGradient id="gh" x1="0" y1="0" x2="0" y2="1"><stop offset="0" stop-color="#fdba74"/><stop offset="0.6" stop-color="#f97316"/><stop offset="1" stop-color="#f97316"/></linearGradient></defs><path d="M 45.36 196.00 A 84.64 84.64 0 0 1 214.64 196.00" fill="none" stroke="#f97316" stroke-width="12.42" stroke-linecap="butt"/><path d="M 69.28 196.00 A 60.72 60.72 0 0 1 190.72 196.00" fill="none" stroke="#f97316" stroke-width="12.42" stroke-linecap="butt"/><path d="M 93.20 196.00 A 36.80 36.80 0 0 1 166.80 196.00 Z" fill="url(#gh)"/><line x1="38.92" y1="196.00" x2="221.08" y2="196.00" stroke="#0f172a" stroke-width="6.90" stroke-linecap="round"/><g fill="#0f172a"><path transform="translate(309.000,156.928) scale(0.09600,-0.09600)" d="M441 -12Q359 -12 288.0 -2.0Q217 8 163.5 33.5Q110 59 80.0 103.5Q50 148 50 216Q50 218 50.0 221.5Q50 225 51 228H247Q246 224 245.5 220.0Q245 216 245 211Q245 180 267.5 162.5Q290 145 331.0 137.5Q372 130 426 130Q450 130 473.5 131.5Q497 133 519.0 137.0Q541 141 558.5 147.5Q576 154 586.5 165.0Q597 176 597 191Q597 213 574.5 226.0Q552 239 514.0 246.5Q476 254 429.0 260.5Q382 267 331.0 275.5Q280 284 233.0 298.5Q186 313 148.0 337.0Q110 361 87.5 398.5Q65 436 65 490Q65 544 92.0 583.5Q119 623 168.0 649.0Q217 675 283.0 687.0Q349 699 427 699Q506 699 570.5 686.5Q635 674 682.0 648.5Q729 623 754.0 584.5Q779 546 779 494V480H585V488Q585 509 567.5 525.5Q550 542 516.5 552.0Q483 562 436 562Q379 562 342.5 554.5Q306 547 289.0 534.0Q272 521 272 506Q272 485 294.0 473.0Q316 461 354.0 454.0Q392 447 439.5 440.5Q487 434 537.5 426.0Q588 418 635.5 404.0Q683 390 721.0 366.5Q759 343 781.0 307.0Q803 271 803 218Q803 136 756.5 85.0Q710 34 628.0 11.0Q546 -12 441 -12Z"/><path transform="translate(392.312,156.928) scale(0.09600,-0.09600)" d="M473 -12Q341 -12 254.0 26.5Q167 65 124.0 139.0Q81 213 81 317V687H281V325Q281 237 331.0 187.5Q381 138 473 138Q565 138 615.0 187.5Q665 237 665 325V687H866V317Q866 213 822.5 139.0Q779 65 692.0 26.5Q605 -12 473 -12Z"/><path transform="translate(485.128,156.928) scale(0.09600,-0.09600)" d="M83 0V687H263L606 367Q615 359 629.0 345.0Q643 331 658.0 315.5Q673 300 684 289H692Q692 307 691.5 333.5Q691 360 691 380V687H880V0H703L366 317Q343 337 318.5 362.0Q294 387 279 402H272Q272 388 272.5 360.5Q273 333 273 303V0Z"/><path transform="translate(579.672,156.928) scale(0.09600,-0.09600)" d="M476 -12Q335 -12 241.5 28.5Q148 69 101.0 148.0Q54 227 54 344Q54 515 162.0 607.0Q270 699 476 699Q592 699 679.5 664.5Q767 630 816.5 565.5Q866 501 866 413H670Q670 456 645.5 486.5Q621 517 577.0 533.5Q533 550 473 550Q404 550 356.0 526.0Q308 502 284.0 459.0Q260 416 260 358V331Q260 274 284.5 230.0Q309 186 356.0 162.0Q403 138 471 138Q535 138 580.5 153.5Q626 169 651.0 199.0Q676 229 676 271H866Q866 186 818.5 122.0Q771 58 683.5 23.0Q596 -12 476 -12Z"/><path transform="translate(669.896,156.928) scale(0.09600,-0.09600)" d="M494 -12Q359 -12 260.0 30.0Q161 72 107.5 151.5Q54 231 54 344Q54 457 107.5 536.5Q161 616 260.0 657.5Q359 699 494 699Q631 699 729.5 657.5Q828 616 881.0 536.5Q934 457 934 344Q934 231 881.0 151.5Q828 72 729.5 30.0Q631 -12 494 -12ZM494 138Q547 138 590.0 151.0Q633 164 664.0 189.0Q695 214 711.5 250.0Q728 286 728 332V358Q728 403 711.5 438.5Q695 474 664.0 499.0Q633 524 590.0 537.0Q547 550 494 550Q441 550 398.0 537.0Q355 524 324.0 499.0Q293 474 276.5 438.5Q260 403 260 358V332Q260 286 276.5 250.0Q293 214 324.0 189.0Q355 164 398.0 151.0Q441 138 494 138Z"/><path transform="translate(766.744,156.928) scale(0.09600,-0.09600)" d="M14 0 343 687H568L896 0H679L629 111H271L221 0ZM336 259H564L503 399Q499 408 492.0 425.5Q485 443 477.5 462.0Q470 481 464.0 498.0Q458 515 454 524H447Q440 506 430.5 482.0Q421 458 412.5 435.5Q404 413 397 398Z"/><path transform="translate(856.200,156.928) scale(0.09600,-0.09600)" d="M313 0V526H24V687H803V526H514V0Z"/></g><g fill="#0f172a"><path transform="translate(312.000,206.290) scale(0.03000,-0.03000)" d="M90 0V687H553Q623 687 672.5 658.5Q722 630 749.0 579.5Q776 529 776 462Q776 396 748.5 344.5Q721 293 670.0 264.5Q619 236 549 236H244V0ZM244 362H514Q565 362 593.0 388.5Q621 415 621 461Q621 493 608.5 515.0Q596 537 572.5 548.5Q549 560 514 560H244Z"/><path transform="translate(358.180,206.290) scale(0.03000,-0.03000)" d="M18 0 339 687H517L839 0H671L611 133H236L176 0ZM292 256H555L481 424Q476 435 468.0 454.0Q460 473 452.0 494.5Q444 516 437.0 533.0Q430 550 427 556H420Q412 536 401.5 510.5Q391 485 381.5 461.0Q372 437 366 424Z"/><path transform="translate(405.890,206.290) scale(0.03000,-0.03000)" d="M90 0V687H244V0Z"/><path transform="translate(437.880,206.290) scale(0.03000,-0.03000)" d="M90 0V687H233L582 322Q592 313 607.0 296.5Q622 280 637.5 263.0Q653 246 663 234H671Q670 253 669.0 279.0Q668 305 668 324V687H815V0H674L325 368Q303 390 279.5 416.5Q256 443 242 459H235Q236 446 236.5 419.0Q237 392 237 359V0Z"/><path transform="translate(487.030,206.290) scale(0.03000,-0.03000)" d="M306 0V554H25V687H740V554H460V0Z"/><path transform="translate(532.010,206.290) scale(0.03000,-0.03000)" d="M90 0V687H244V0Z"/><path transform="translate(564.000,206.290) scale(0.03000,-0.03000)" d="M90 0V687H233L582 322Q592 313 607.0 296.5Q622 280 637.5 263.0Q653 246 663 234H671Q670 253 669.0 279.0Q668 305 668 324V687H815V0H674L325 368Q303 390 279.5 416.5Q256 443 242 459H235Q236 446 236.5 419.0Q237 392 237 359V0Z"/><path transform="translate(613.150,206.290) scale(0.03000,-0.03000)" d="M455 -12Q261 -12 161.5 75.5Q62 163 62 343Q62 461 112.0 540.5Q162 620 256.5 659.5Q351 699 483 699Q567 699 637.5 683.5Q708 668 760.5 636.5Q813 605 841.5 557.5Q870 510 870 446H718Q718 480 699.5 504.0Q681 528 648.5 543.5Q616 559 575.0 565.5Q534 572 489 572Q429 572 379.0 559.5Q329 547 293.5 520.0Q258 493 239.0 452.0Q220 411 220 356V332Q220 255 250.0 207.0Q280 159 336.5 136.5Q393 114 473 114Q554 114 608.5 131.0Q663 148 691.0 179.5Q719 211 719 254V261H463V380H870V0H773L758 85Q723 51 676.5 29.5Q630 8 574.5 -2.0Q519 -12 455 -12Z"/></g></svg>