<svg xmlns="http://www.w3.org/2000/svg" viewBox="0 0 136 136" width="136" height="136"><g transform="translate(8,8)"><line x1="89.00" y1="50.00" x2="100.00" y2="50.00" stroke="#FFC02E" stroke-width="7.4" stroke-linecap="round"/><line x1="80.51" y1="70.51" x2="88.28" y2="78.28" stroke="#FFC02E" stroke-width="7.4" stroke-linecap="round"/><line x1="39.49" y1="70.51" x2="31.72" y2="78.28" stroke="#FFC02E" stroke-width="7.4" stroke-linecap="round"/><line x1="31.00" y1="50.00" x2="20.00" y2="50.00" stroke="#FFC02E" stroke-width="7.4" stroke-linecap="round"/><line x1="39.49" y1="29.49" x2="31.72" y2="21.72" stroke="#FFC02E" stroke-width="7.4" stroke-linecap="round"/><line x1="60.00" y1="21.00" x2="60.00" y2="10.00" stroke="#FFC02E" stroke-width="7.4" stroke-linecap="round"/><line x1="80.51" y1="29.49" x2="88.28" y2="21.72" stroke="#FFC02E" stroke-width="7.4" stroke-linecap="round"/><circle cx="60" cy="50" r="22" fill="#F47C20"/><path d="M 19,86 C 37,95 83,95 99,86 L 104,97 C 84,108 36,108 19,97 C 16,93 16,90 19,86 Z" fill="#F47C20"/><path d="M 27,89 C 45,96 79,96 95,89" stroke="#FFC02E" stroke-width="1.7" fill="none" stroke-linecap="round" opacity="0.55"/><path d="M 30,93 C 47,99.5 77,99.5 94,92" stroke="#FFC02E" stroke-width="1.4" fill="none" stroke-linecap="round" opacity="0.42"/><path d="M 89,99 L 101,90" stroke="#E25C18" stroke-width="1.3" stroke-linecap="round" opacity="0.5"/><path d="M 90,102 L 103,93" stroke="#E25C18" stroke-width="1.3" stroke-linecap="round" opacity="0.5"/><path d="M 88,96 L 99,88" stroke="#E25C18" stroke-width="1.3" stroke-linecap="round" opacity="0.5"/><path d="M 43,105.5 c -3,2 -3,6 0,8 c 3,-2 3,-6 0,-8 z" fill="#E25C18"/><path d="M 73,106.5 c -3,2 -3,6 0,8 c 3,-2 3,-6 0,-8 z" fill="#E25C18"/></g></svg>