<svg xmlns="http://www.w3.org/2000/svg" viewBox="0 0 345 292" width="345" height="292"><g transform="translate(101.6,30.0) scale(1.18)"><line x1="89.00" y1="50.00" x2="100.00" y2="50.00" stroke="#FFC02E" stroke-width="7.4" stroke-linecap="round"/><line x1="80.51" y1="70.51" x2="88.28" y2="78.28" stroke="#FFC02E" stroke-width="7.4" stroke-linecap="round"/><line x1="39.49" y1="70.51" x2="31.72" y2="78.28" stroke="#FFC02E" stroke-width="7.4" stroke-linecap="round"/><line x1="31.00" y1="50.00" x2="20.00" y2="50.00" stroke="#FFC02E" stroke-width="7.4" stroke-linecap="round"/><line x1="39.49" y1="29.49" x2="31.72" y2="21.72" stroke="#FFC02E" stroke-width="7.4" stroke-linecap="round"/><line x1="60.00" y1="21.00" x2="60.00" y2="10.00" stroke="#FFC02E" stroke-width="7.4" stroke-linecap="round"/><line x1="80.51" y1="29.49" x2="88.28" y2="21.72" stroke="#FFC02E" stroke-width="7.4" stroke-linecap="round"/><circle cx="60" cy="50" r="22" fill="#F47C20"/><path d="M 19,86 C 37,95 83,95 99,86 L 104,97 C 84,108 36,108 19,97 C 16,93 16,90 19,86 Z" fill="#F47C20"/><path d="M 27,89 C 45,96 79,96 95,89" stroke="#FFC02E" stroke-width="1.7" fill="none" stroke-linecap="round" opacity="0.55"/><path d="M 30,93 C 47,99.5 77,99.5 94,92" stroke="#FFC02E" stroke-width="1.4" fill="none" stroke-linecap="round" opacity="0.42"/><path d="M 89,99 L 101,90" stroke="#E25C18" stroke-width="1.3" stroke-linecap="round" opacity="0.5"/><path d="M 90,102 L 103,93" stroke="#E25C18" stroke-width="1.3" stroke-linecap="round" opacity="0.5"/><path d="M 88,96 L 99,88" stroke="#E25C18" stroke-width="1.3" stroke-linecap="round" opacity="0.5"/><path d="M 43,105.5 c -3,2 -3,6 0,8 c 3,-2 3,-6 0,-8 z" fill="#E25C18"/><path d="M 73,106.5 c -3,2 -3,6 0,8 c 3,-2 3,-6 0,-8 z" fill="#E25C18"/></g><g transform="translate(30.0,233.3)"><g fill="#16273F" transform="scale(0.062000,-0.062000)"><path transform="translate(0.00,0)" d="M42 210H224Q228 171 251.0 150.5Q274 130 311 130Q349 130 371.0 147.5Q393 165 393 196Q393 222 375.5 239.0Q358 256 332.5 267.0Q307 278 260 292Q192 313 149.0 334.0Q106 355 75.0 396.0Q44 437 44 503Q44 601 115.0 656.5Q186 712 300 712Q416 712 487.0 656.5Q558 601 563 502H378Q376 536 353.0 555.5Q330 575 294 575Q263 575 244.0 558.5Q225 542 225 511Q225 477 257.0 458.0Q289 439 357 417Q425 394 467.5 373.0Q510 352 541.0 312.0Q572 272 572 209Q572 149 541.5 100.0Q511 51 453.0 22.0Q395 -7 316 -7Q239 -7 178.0 18.0Q117 43 80.5 92.0Q44 141 42 210Z"/><path transform="translate(606.94,0)" d="M613 558V0H442V76Q416 39 371.5 16.5Q327 -6 273 -6Q209 -6 160.0 22.5Q111 51 84.0 105.0Q57 159 57 232V558H227V255Q227 199 256.0 168.0Q285 137 334 137Q384 137 413.0 168.0Q442 199 442 255V558Z"/><path transform="translate(1272.87,0)" d="M617 326V0H447V303Q447 359 418.0 390.0Q389 421 340 421Q291 421 262.0 390.0Q233 359 233 303V0H62V558H233V484Q259 521 303.0 542.5Q347 564 402 564Q500 564 558.5 500.5Q617 437 617 326Z"/><path transform="translate(2142.74,0)" d="M386 710Q511 710 600.0 644.0Q689 578 719 464H531Q510 508 471.5 531.0Q433 554 384 554Q305 554 256.0 499.0Q207 444 207 352Q207 260 256.0 205.0Q305 150 384 150Q433 150 471.5 173.0Q510 196 531 240H719Q689 126 600.0 60.5Q511 -5 386 -5Q284 -5 203.5 40.5Q123 86 78.0 167.0Q33 248 33 352Q33 456 78.0 537.5Q123 619 203.5 664.5Q284 710 386 710Z"/><path transform="translate(2896.68,0)" d="M28 279Q28 365 66.0 430.5Q104 496 170.0 531.0Q236 566 318 566Q400 566 466.0 531.0Q532 496 570.0 430.5Q608 365 608 279Q608 193 569.5 127.5Q531 62 464.5 27.0Q398 -8 316 -8Q234 -8 168.5 27.0Q103 62 65.5 127.0Q28 192 28 279ZM434 279Q434 346 400.5 382.0Q367 418 318 418Q268 418 235.0 382.5Q202 347 202 279Q202 212 234.5 176.0Q267 140 316 140Q365 140 399.5 176.0Q434 212 434 279Z"/><path transform="translate(3525.61,0)" d="M274 566Q333 566 377.5 542.0Q422 518 446 479V558H617V0H446V79Q421 40 376.5 16.0Q332 -8 273 -8Q205 -8 149.0 27.5Q93 63 60.5 128.5Q28 194 28 280Q28 366 60.5 431.0Q93 496 149.0 531.0Q205 566 274 566ZM324 417Q273 417 237.5 380.5Q202 344 202 280Q202 216 237.5 178.5Q273 141 324 141Q375 141 410.5 178.0Q446 215 446 279Q446 343 410.5 380.0Q375 417 324 417Z"/><path transform="translate(4196.55,0)" d="M373 145V0H286Q193 0 141.0 45.5Q89 91 89 194V416H21V558H89V694H260V558H372V416H260V192Q260 167 272.0 156.0Q284 145 312 145Z"/></g></g><g transform="translate(88.6,262.3)"><g fill="#E25C18" transform="scale(0.021500,-0.021500)"><path transform="translate(0.00,0)" d="M315 282H189V0H75V695H315Q395 695 450.5 667.5Q506 640 533.5 593.0Q561 546 561 488Q561 435 536.0 388.0Q511 341 456.0 311.5Q401 282 315 282ZM444 488Q444 602 315 602H189V375H315Q380 375 412.0 404.5Q444 434 444 488Z"/><path transform="translate(995.00,0)" d="M494 142H203L153 0H34L283 696H415L664 0H544ZM462 235 349 558 235 235Z"/><path transform="translate(2092.00,0)" d="M189 695V0H75V695Z"/><path transform="translate(2756.00,0)" d="M646 0H532L189 519V0H75V696H189L532 178V696H646Z"/><path transform="translate(3877.00,0)" d="M524 695V602H339V0H225V602H39V695Z"/><path transform="translate(4841.00,0)" d="M189 695V0H75V695Z"/><path transform="translate(5505.00,0)" d="M646 0H532L189 519V0H75V696H189L532 178V696H646Z"/><path transform="translate(6626.00,0)" d="M578 495Q551 547 503.0 573.5Q455 600 392 600Q323 600 269.0 569.0Q215 538 184.5 481.0Q154 424 154 349Q154 274 184.5 216.5Q215 159 269.0 128.0Q323 97 392 97Q485 97 543.0 149.0Q601 201 614 290H353V381H736V292Q725 211 678.5 143.0Q632 75 557.5 34.5Q483 -6 392 -6Q294 -6 213.0 39.5Q132 85 84.5 166.0Q37 247 37 349Q37 451 84.5 532.0Q132 613 213.5 658.5Q295 704 392 704Q503 704 589.5 649.5Q676 595 715 495Z"/></g></g></svg>